<svg xmlns="http://www.w3.org/2000/svg" xmlns:xlink="http://www.w3.org/1999/xlink">
<g data-v-0dd9719b="" fill="#000000" class="icon-text-wrapper icon-svg-group iconsvg" transform="translate(40.72686767578125,0)"><g fill="#A11F1F" class="iconsvg-imagesvg icon_container" transform="translate(0,0)"><rect fill="#000000" fill-opacity="0" stroke-width="2" x="0" y="0" width="53.05626326963906" height="53.05626326963906" class="image-rect"></rect> <svg viewBox="0 0 60 58.661348037777906" x="0" y="0" width="53.05626326963906" height="53.05626326963906" class="image-svg-svg bn" style="overflow: visible;"><g hollow-target="iconBnFill" mask="url(#25f4a76d-01d2-4851-8dcc-6922545b5e27)"><g><svg xmlns="http://www.w3.org/2000/svg" viewBox="0.03419 -0.0032 291.27557 284.77563" style="overflow: visible;" width="60" height="58.661348037777906" x="0" y="0" filtersec="colorsf1475879702" filter="url(#TJOaiqjkHRgZZ9GURSkDs)"><g transform="scale(1, 1) skewX(0)"><g><path d="M287.78 192.13c-2.19-3.91-.23-7.53-3.19-10.37-1 4.75 0 9 3.13 11.17 3.31 2.34 3.12 6.07 1.93 7.15-3.3 3-.53 5.67-.72 8.4a80.74 80.74 0 0 1-4.87 22.8c-1 2.82-2.21 5.5-2.43 8.57-.14 2-.27 3.66-3.41 4.34-3.49.74-4.35 5-6 8.18 1.91.42 2.17-2.48 4.56-1.06-1.78 7.69-6.5 13.69-12.14 19.17a2 2 0 0 1-2.28.32c-4.11-1.65-6-.41-5.79 3.75.05 1.08-.61 1.42-1.29 1.87a27 27 0 0 1-8 3.93c-1 .24-2.08 1.13-2.75-.8-.87-2.5-1.54-2.7-3.38-.79-6.51 6.77-14.81 4.48-22.54 5.16 5.1-4.29 11.7-3.73 17.49-6 8.93-3.48 17.3-7.29 23.77-14.56.63-.7 1.42-1.82 2.42-1.2.51.31.39 1.63.79 3.76.85-5.3 6.34-8 3.41-13.31-1.72-.05-2.1 1.49-2.88 2.38-10.86 12.47-24.2 20.27-40.89 21.37-9.93.65-19.32 4.36-29.42 4.27s-20.08 1.35-30.12-.22c-2-.32-4-.32-5.71 1a5 5 0 0 1-4.32.71c-6.17-1.51-12.25-.07-18.28.68-5.69.7-10.92-1.62-16.68-1.31-7.47.41-14.78 2-22.23 2.18-2.21.06-5 2-6.49-1.52-.09-.21-.92-.37-1.23-.2-11.19 5.89-21.73 1.31-32.08-2.42-10-3.62-19.11-9.44-27.67-15.68-8.15-5.94-12.56-14.73-14-24.76-.39-2.69-2.86-3.8-3.65-6.27-2.33-7.32-2.27-14.57-1.29-22.1.78-6 1.23-12.19-1.19-18.14-.88 4.42-2.68 8.53-1.36 13.25.9 3.21 3 7.24-2.41 9.18-1.34.48-.12 1.79.31 2.47 2 3.18 2.54 6.8 3.31 10.37 3.93 18.24 11.86 34.1 27.16 45.58a22.14 22.14 0 0 1 2.67 2.24 2.57 2.57 0 0 1 .46 3.2c-.92 1.23-2.14.25-3.05-.37a76 76 0 0 1-15.85-14.37c-5.93-7.1-11.34-14.85-13-23.88-1.95-10.33-5.31-20.38-4.84-31.33.79-18.27.29-36.61.11-54.92-.13-12.75-1.42-25.49-.55-38.25.19-2.81.05-5.69.68-8.39a29.76 29.76 0 0 0-1.5-18 6.94 6.94 0 0 1 .38-5.82A10.24 10.24 0 0 0 1 74a4.88 4.88 0 0 1-.61-2.83C2.72 61.38 3.45 51.15 10.6 43c3.4-3.92 5.45-9 8.09-13.5 1.38-2.38 2.45-4.57 5.64-5.69 4.08-1.43 5.53-6.69 9.84-8.39 1.84-.73 3.12-4.78 5.65-.78.12.18 1.27-.13 1.83-.42a14.62 14.62 0 0 0 3.39-2c2.92-2.73 9.23-1.58 9.85-4C56.2 3 60 3.59 63.08 2.27a20.05 20.05 0 0 1 11.79-1.15C80.6 2.28 86 1.57 91.61.45c2.33-.46 5-1 7 1.32.21.25.55.68.7.63 7.68-2.5 15.38 4.25 23.32-.51 4.23-2.54 9.55-2 14.65-1.36a112.77 112.77 0 0 0 15.93.38c7.69-.16 15.28.18 22.7 2.42a22.67 22.67 0 0 0 8.88.58c-.33-1.23-2-.37-2.27-2.41 4-.09 8.11-1.55 12 .89 1.48.94 2.44-.19 3.64-.19 2 0 4-.23 6-.13 3 .13 7.69-1.15 8 2.76.34 4.11-4.67 1.6-7 2.94 4.42 1 8.17 0 11.21-3.52a7.27 7.27 0 0 1 5.81-2.32c10-.08 18.71 3.34 27.14 8.41 4.57 2.76 8.42 6.49 13.62 8.49s9 6.41 12.39 10.94a84.94 84.94 0 0 1 8.75 15.67c1.14 2.5 3.3 4.75.05 7.73-1.49 1.37-.83 4.36.92 7l1-4.44c2.23 10 6.33 19.66 5 30.1-.25 2 .75 4.93-3.5 4.28-2.15-.33-1.38 2.28-1.25 3.54.39 3.63 2.35 7.63 1.36 10.76-1.86 5.92.14 10.81 1.88 16 .93 2.76-.46 5.23-.62 7.85-.63 10.58.94 21.11-.21 31.8a65.59 65.59 0 0 0 .6 16c.69 4.87-.31 9.94-1.53 16.07zm-277.18-.37c-.15-11.77 2.12-23.74-2.44-36-1.77 12.79-1.84 24.57 2.44 36zM242.87 23.17c-6.62-8-38.63-10.38-47.59-6.25 16.29 3.08 33.02-3.81 47.59 6.25zM166.3 6.07c-12.51-.63-25.09-2-37.22 2l.07 1.48h9.06l-3.44-.87c11.14-2.47 21.69 2.25 31.53-2.61zM3.94 113.75c-.82 6 3.36 10.93 3.51 16.92s-2 12.21.7 19.42c2.28-15.46-.18-29.72-.54-44-2.92 4 .4 8.5-.52 13.2-2.29-1.95-1.63-4.1-3.15-5.54zm53.34-103.1c1.36 1.26 2.4 1.19 3.27.67 7.62-4.47 16-3.25 24.24-3.38a17.33 17.33 0 0 0 4-.26c1.37-.34 3.36-.77 3-2.63-.41-2.25-2.32-1.33-3.63-.85-6.53 2.37-13.3 2-20.07 2.32-3.76.16-7.97.48-10.81 4.13z" fill="#000000"></path></g></g><defs><filter id="TJOaiqjkHRgZZ9GURSkDs"><feColorMatrix type="matrix" values="0 0 0 0 0.62890625  0 0 0 0 0.12109375  0 0 0 0 0.12109375  0 0 0 1 0"></feColorMatrix></filter></defs></svg></g> <g filter="url(#colors8244549320)"><svg xmlns="http://www.w3.org/2000/svg" xmlns:xlink="http://www.w3.org/1999/xlink" viewBox="0 0 66.234375 66.1640625" width="41" height="40.08525" x="9.5" y="9.288049018888952" class="image-svg-letter"><path transform="translate(-2.8828125 60.46875)" d="M24.47-30.59L24.47-30.59L31.85-35.09L6.12-35.09Q3.09-35.09 3.09-37.90Q3.09-40.71 6.12-40.71L6.12-40.71L26.65-40.71L26.65-48.16L11.04-48.16Q7.95-48.16 7.95-50.98Q7.95-53.79 11.04-53.79L11.04-53.79L26.65-53.79L26.65-57.45Q26.65-60.47 29.74-60.47Q32.84-60.47 32.84-57.45L32.84-57.45L32.84-53.79L45.84-53.79Q48.87-53.79 48.87-50.98Q48.87-48.16 45.84-48.16L45.84-48.16L32.84-48.16L32.84-40.71L39.73-40.71Q48.30-47.32 56.88-56.46L56.88-56.46Q58.43-58.08 59.77-58.08L59.77-58.08Q62.86-58.08 62.86-55.34L62.86-55.34Q62.86-53.79 60.05-51.26L60.05-51.26L57.02-48.45Q53.09-44.72 48.02-40.71L48.02-40.71L66.02-40.71Q69.12-40.71 69.12-37.90Q69.12-35.09 66.02-35.09L66.02-35.09L40.64-35.09Q33.54-29.95 27.28-26.30L27.28-26.30Q39.59-27.14 46.97-28.48L46.97-28.48L58.64-30.80Q61.80-30.80 61.80-27.70L61.80-27.70Q61.80-25.66 58.68-24.86Q55.55-24.05 48.69-23.27Q41.84-22.50 23.98-21.30L23.98-21.30L23.70-19.55L23.48-17.44Q23.48-15.54 25.52-15.54L25.52-15.54L56.88-15.54Q62.93-15.54 62.93-10.83L62.93-10.83Q62.93-6.40 61.49-2.07Q60.05 2.25 56.57 3.97Q53.09 5.70 42.89 5.70L42.89 5.70Q38.88 5.70 38.88 2.39L38.88 2.39Q38.88-0.77 42.96-0.77L42.96-0.77L46.05-0.77L49.08-0.70Q54.49-0.70 55.69-4.08L55.69-4.08Q56.60-6.68 56.60-8.58L56.60-8.58Q56.60-10.13 54.63-10.13L54.63-10.13L23.13-10.13Q17.09-10.13 17.09-14.77L17.09-14.77L17.93-21.30Q7.52-15.82 5.55-15.82L5.55-15.82Q2.88-15.82 2.88-18.70L2.88-18.70Q2.88-20.74 6.47-22.08L6.47-22.08Q11.88-24.05 18.77-27.56L18.77-27.56Q19.41-31.92 22.08-31.92L22.08-31.92Q23.63-31.92 24.47-30.59Z"></path></svg></g></g><mask id="25f4a76d-01d2-4851-8dcc-6922545b5e27"><g fill="white"><svg xmlns="http://www.w3.org/2000/svg" viewBox="0.03419 -0.0032 291.27557 284.77563" style="overflow: visible;" width="60" height="58.661348037777906" x="0" y="0" filtersec="colorsf1475879702"><g transform="scale(1, 1) skewX(0)"><g><path d="M287.78 192.13c-2.19-3.91-.23-7.53-3.19-10.37-1 4.75 0 9 3.13 11.17 3.31 2.34 3.12 6.07 1.93 7.15-3.3 3-.53 5.67-.72 8.4a80.74 80.74 0 0 1-4.87 22.8c-1 2.82-2.21 5.5-2.43 8.57-.14 2-.27 3.66-3.41 4.34-3.49.74-4.35 5-6 8.18 1.91.42 2.17-2.48 4.56-1.06-1.78 7.69-6.5 13.69-12.14 19.17a2 2 0 0 1-2.28.32c-4.11-1.65-6-.41-5.79 3.75.05 1.08-.61 1.42-1.29 1.87a27 27 0 0 1-8 3.93c-1 .24-2.08 1.13-2.75-.8-.87-2.5-1.54-2.7-3.38-.79-6.51 6.77-14.81 4.48-22.54 5.16 5.1-4.29 11.7-3.73 17.49-6 8.93-3.48 17.3-7.29 23.77-14.56.63-.7 1.42-1.82 2.42-1.2.51.31.39 1.63.79 3.76.85-5.3 6.34-8 3.41-13.31-1.72-.05-2.1 1.49-2.88 2.38-10.86 12.47-24.2 20.27-40.89 21.37-9.93.65-19.32 4.36-29.42 4.27s-20.08 1.35-30.12-.22c-2-.32-4-.32-5.71 1a5 5 0 0 1-4.32.71c-6.17-1.51-12.25-.07-18.28.68-5.69.7-10.92-1.62-16.68-1.31-7.47.41-14.78 2-22.23 2.18-2.21.06-5 2-6.49-1.52-.09-.21-.92-.37-1.23-.2-11.19 5.89-21.73 1.31-32.08-2.42-10-3.62-19.11-9.44-27.67-15.68-8.15-5.94-12.56-14.73-14-24.76-.39-2.69-2.86-3.8-3.65-6.27-2.33-7.32-2.27-14.57-1.29-22.1.78-6 1.23-12.19-1.19-18.14-.88 4.42-2.68 8.53-1.36 13.25.9 3.21 3 7.24-2.41 9.18-1.34.48-.12 1.79.31 2.47 2 3.18 2.54 6.8 3.31 10.37 3.93 18.24 11.86 34.1 27.16 45.58a22.14 22.14 0 0 1 2.67 2.24 2.57 2.57 0 0 1 .46 3.2c-.92 1.23-2.14.25-3.05-.37a76 76 0 0 1-15.85-14.37c-5.93-7.1-11.34-14.85-13-23.88-1.95-10.33-5.31-20.38-4.84-31.33.79-18.27.29-36.61.11-54.92-.13-12.75-1.42-25.49-.55-38.25.19-2.81.05-5.69.68-8.39a29.76 29.76 0 0 0-1.5-18 6.94 6.94 0 0 1 .38-5.82A10.24 10.24 0 0 0 1 74a4.88 4.88 0 0 1-.61-2.83C2.72 61.38 3.45 51.15 10.6 43c3.4-3.92 5.45-9 8.09-13.5 1.38-2.38 2.45-4.57 5.64-5.69 4.08-1.43 5.53-6.69 9.84-8.39 1.84-.73 3.12-4.78 5.65-.78.12.18 1.27-.13 1.83-.42a14.62 14.62 0 0 0 3.39-2c2.92-2.73 9.23-1.58 9.85-4C56.2 3 60 3.59 63.08 2.27a20.05 20.05 0 0 1 11.79-1.15C80.6 2.28 86 1.57 91.61.45c2.33-.46 5-1 7 1.32.21.25.55.68.7.63 7.68-2.5 15.38 4.25 23.32-.51 4.23-2.54 9.55-2 14.65-1.36a112.77 112.77 0 0 0 15.93.38c7.69-.16 15.28.18 22.7 2.42a22.67 22.67 0 0 0 8.88.58c-.33-1.23-2-.37-2.27-2.41 4-.09 8.11-1.55 12 .89 1.48.94 2.44-.19 3.64-.19 2 0 4-.23 6-.13 3 .13 7.69-1.15 8 2.76.34 4.11-4.67 1.6-7 2.94 4.42 1 8.17 0 11.21-3.52a7.27 7.27 0 0 1 5.81-2.32c10-.08 18.71 3.34 27.14 8.41 4.57 2.76 8.42 6.49 13.62 8.49s9 6.41 12.39 10.94a84.94 84.94 0 0 1 8.75 15.67c1.14 2.5 3.3 4.75.05 7.73-1.49 1.37-.83 4.36.92 7l1-4.44c2.23 10 6.33 19.66 5 30.1-.25 2 .75 4.93-3.5 4.28-2.15-.33-1.38 2.28-1.25 3.54.39 3.63 2.35 7.63 1.36 10.76-1.86 5.92.14 10.81 1.88 16 .93 2.76-.46 5.23-.62 7.85-.63 10.58.94 21.11-.21 31.8a65.59 65.59 0 0 0 .6 16c.69 4.87-.31 9.94-1.53 16.07zm-277.18-.37c-.15-11.77 2.12-23.74-2.44-36-1.77 12.79-1.84 24.57 2.44 36zM242.87 23.17c-6.62-8-38.63-10.38-47.59-6.25 16.29 3.08 33.02-3.81 47.59 6.25zM166.3 6.07c-12.51-.63-25.09-2-37.22 2l.07 1.48h9.06l-3.44-.87c11.14-2.47 21.69 2.25 31.53-2.61zM3.94 113.75c-.82 6 3.36 10.93 3.51 16.92s-2 12.21.7 19.42c2.28-15.46-.18-29.72-.54-44-2.92 4 .4 8.5-.52 13.2-2.29-1.95-1.63-4.1-3.15-5.54zm53.34-103.1c1.36 1.26 2.4 1.19 3.27.67 7.62-4.47 16-3.25 24.24-3.38a17.33 17.33 0 0 0 4-.26c1.37-.34 3.36-.77 3-2.63-.41-2.25-2.32-1.33-3.63-.85-6.53 2.37-13.3 2-20.07 2.32-3.76.16-7.97.48-10.81 4.13z"></path></g></g><defs></defs></svg></g> <g fill="black"><svg xmlns="http://www.w3.org/2000/svg" xmlns:xlink="http://www.w3.org/1999/xlink" viewBox="0 0 66.234375 66.1640625" width="41" height="40.08525" x="9.5" y="9.288049018888952" class="image-svg-letter"><path transform="translate(-2.8828125 60.46875)" d="M24.47-30.59L24.47-30.59L31.85-35.09L6.12-35.09Q3.09-35.09 3.09-37.90Q3.09-40.71 6.12-40.71L6.12-40.71L26.65-40.71L26.65-48.16L11.04-48.16Q7.95-48.16 7.95-50.98Q7.95-53.79 11.04-53.79L11.04-53.79L26.65-53.79L26.65-57.45Q26.65-60.47 29.74-60.47Q32.84-60.47 32.84-57.45L32.84-57.45L32.84-53.79L45.84-53.79Q48.87-53.79 48.87-50.98Q48.87-48.16 45.84-48.16L45.84-48.16L32.84-48.16L32.84-40.71L39.73-40.71Q48.30-47.32 56.88-56.46L56.88-56.46Q58.43-58.08 59.77-58.08L59.77-58.08Q62.86-58.08 62.86-55.34L62.86-55.34Q62.86-53.79 60.05-51.26L60.05-51.26L57.02-48.45Q53.09-44.72 48.02-40.71L48.02-40.71L66.02-40.71Q69.12-40.71 69.12-37.90Q69.12-35.09 66.02-35.09L66.02-35.09L40.64-35.09Q33.54-29.95 27.28-26.30L27.28-26.30Q39.59-27.14 46.97-28.48L46.97-28.48L58.64-30.80Q61.80-30.80 61.80-27.70L61.80-27.70Q61.80-25.66 58.68-24.86Q55.55-24.05 48.69-23.27Q41.84-22.50 23.98-21.30L23.98-21.30L23.70-19.55L23.48-17.44Q23.48-15.54 25.52-15.54L25.52-15.54L56.88-15.54Q62.93-15.54 62.93-10.83L62.93-10.83Q62.93-6.40 61.49-2.07Q60.05 2.25 56.57 3.97Q53.09 5.70 42.89 5.70L42.89 5.70Q38.88 5.70 38.88 2.39L38.88 2.39Q38.88-0.77 42.96-0.77L42.96-0.77L46.05-0.77L49.08-0.70Q54.49-0.70 55.69-4.08L55.69-4.08Q56.60-6.68 56.60-8.58L56.60-8.58Q56.60-10.13 54.63-10.13L54.63-10.13L23.13-10.13Q17.09-10.13 17.09-14.77L17.09-14.77L17.93-21.30Q7.52-15.82 5.55-15.82L5.55-15.82Q2.88-15.82 2.88-18.70L2.88-18.70Q2.88-20.74 6.47-22.08L6.47-22.08Q11.88-24.05 18.77-27.56L18.77-27.56Q19.41-31.92 22.08-31.92L22.08-31.92Q23.63-31.92 24.47-30.59Z"></path></svg></g></mask></svg> <defs><filter id="colors8244549320"><feColorMatrix type="matrix" values="0 0 0 0 0.04296875  0 0 0 0 0.74609375  0 0 0 0 0.390625  0 0 0 1 0" class="icon-fecolormatrix"></feColorMatrix></filter> <filter id="colorsf1475879702"><feColorMatrix type="matrix" values="0 0 0 0 0.99609375  0 0 0 0 0.99609375  0 0 0 0 0.99609375  0 0 0 1 0" class="icon-fecolormatrix"></feColorMatrix></filter> <filter id="colorsb9627852443"><feColorMatrix type="matrix" values="0 0 0 0 0  0 0 0 0 0  0 0 0 0 0  0 0 0 1 0" class="icon-fecolormatrix"></feColorMatrix></filter></defs></g> <g transform="translate(60.0562629699707,6.333444595336914)"><g data-gra="path-name" fill-rule="" class="tp-name iconsvg-namesvg" transform="translate(0,0)"><g transform="scale(1)"><g><path d="M11.21-14.02L11.21-14.02 14.6-16.08 2.8-16.08Q1.42-16.08 1.42-17.37 1.42-18.66 2.8-18.66L2.8-18.66 12.21-18.66 12.21-22.08 5.06-22.08Q3.64-22.08 3.64-23.36 3.64-24.65 5.06-24.65L5.06-24.65 12.21-24.65 12.21-26.33Q12.21-27.71 13.63-27.71 15.05-27.71 15.05-26.33L15.05-26.33 15.05-24.65 21.01-24.65Q22.4-24.65 22.4-23.36 22.4-22.08 21.01-22.08L21.01-22.08 15.05-22.08 15.05-18.66 18.21-18.66Q22.14-21.69 26.07-25.88L26.07-25.88Q26.78-26.62 27.39-26.62L27.39-26.62Q28.81-26.62 28.81-25.36L28.81-25.36Q28.81-24.65 27.52-23.49L27.52-23.49 26.14-22.2Q24.33-20.5 22.01-18.66L22.01-18.66 30.26-18.66Q31.68-18.66 31.68-17.37 31.68-16.08 30.26-16.08L30.26-16.08 18.63-16.08Q15.37-13.73 12.5-12.05L12.5-12.05Q18.14-12.44 21.53-13.05L21.53-13.05 26.88-14.12Q28.33-14.12 28.33-12.7L28.33-12.7Q28.33-11.76 26.89-11.39 25.46-11.02 22.32-10.67 19.17-10.31 10.99-9.76L10.99-9.76 10.86-8.96 10.76-7.99Q10.76-7.12 11.7-7.12L11.7-7.12 26.07-7.12Q28.84-7.12 28.84-4.96L28.84-4.96Q28.84-2.93 28.18-0.95 27.52 1.03 25.93 1.82 24.33 2.61 19.66 2.61L19.66 2.61Q17.82 2.61 17.82 1.1L17.82 1.1Q17.82-0.35 19.69-0.35L19.69-0.35 21.11-0.35 22.49-0.32Q24.98-0.32 25.52-1.87L25.52-1.87Q25.94-3.06 25.94-3.93L25.94-3.93Q25.94-4.64 25.04-4.64L25.04-4.64 10.6-4.64Q7.83-4.64 7.83-6.77L7.83-6.77 8.22-9.76Q3.45-7.25 2.55-7.25L2.55-7.25Q1.32-7.25 1.32-8.57L1.32-8.57Q1.32-9.51 2.96-10.12L2.96-10.12Q5.45-11.02 8.6-12.63L8.6-12.63Q8.89-14.63 10.12-14.63L10.12-14.63Q10.83-14.63 11.21-14.02ZM47.66-21.53L52.82-21.53 52.82-25.91Q52.82-27.55 54.3-27.55L54.3-27.55Q55.75-27.55 55.75-25.91L55.75-25.91 55.75-21.53 62.33-21.53Q64.07-21.53 64.07-20.14 64.07-18.76 62.33-18.76L62.33-18.76 47.66-18.76Q45.92-18.76 45.92-20.14 45.92-21.53 47.66-21.53L47.66-21.53ZM41.77-26.14L41.77-21.33 43.8-21.33Q45.28-21.33 45.28-20.01L45.28-20.01Q45.28-18.72 43.8-18.72L43.8-18.72 41.77-18.72 41.77-12.47 41.86-12.5 43.57-13.02 44.47-13.21Q45.63-13.21 45.63-12.02L45.63-12.02Q45.63-11.38 45.15-10.97 44.67-10.57 41.77-9.73L41.77-9.73 41.77-0.93Q41.8 0.64 40.93 1.55L40.93 1.55Q39.99 2.42 38.41 2.35L38.41 2.35 36.8 2.35Q35.35 2.35 35.35 0.93 35.35-0.48 36.8-0.48L36.8-0.48 37.8-0.48Q39.03-0.52 39.06-1.74L39.06-1.74 39.06-8.93 37.93-8.6Q35.93-7.99 35.67-7.99L35.67-7.99Q34.29-7.99 34.29-9.41L34.29-9.41Q34.29-10.6 36.09-10.99L36.09-10.99 38.96-11.7 39.06-11.73 39.06-18.72 35.96-18.72Q34.45-18.72 34.45-20.04L34.45-20.04Q34.45-21.33 35.96-21.33L35.96-21.33 39.06-21.33 39.06-26.14Q39.06-27.71 40.41-27.71 41.77-27.71 41.77-26.14L41.77-26.14ZM45.05-1.71L55.78-1.71Q57.27-7.15 58.36-14.34L58.36-14.34Q58.78-17.14 60.26-17.14L60.26-17.14Q61.81-17.14 61.81-15.79L61.81-15.79 61.68-14.86 59.81-6.64 58.56-1.71 62.97-1.71Q64.68-1.71 64.68-0.32 64.68 1.06 62.97 1.06L62.97 1.06 45.05 1.06Q43.31 1.06 43.31-0.32 43.31-1.71 45.05-1.71L45.05-1.71ZM48.57-16.18L48.57-16.18Q49.76-16.18 50.37-13.6 50.98-11.02 51.5-8.48 52.01-5.93 52.01-5.22L52.01-5.22Q52.01-3.71 50.53-3.71L50.53-3.71Q49.15-3.71 48.89-5.67L48.89-5.67 48.18-9.89 47.12-14.89Q47.12-16.18 48.57-16.18ZM78.05-16.15L78.05-16.15Q79.47-17.6 80.73-17.6L80.73-17.6Q81.86-17.6 81.86-16.27L81.86-16.27Q81.86-15.28 80.76-14.94 79.66-14.6 79.34-14.41L79.34-14.41Q79.99-13.18 79.99-11.83L79.99-11.83Q79.99-9.76 78.34-8.36 76.7-6.96 74.19-6.96L74.19-6.96Q73.28-6.96 72.38-7.19L72.38-7.19Q71.29-6.77 71.29-6.22L71.29-6.22Q71.29-5.48 73.48-5.12L73.48-5.12Q77.76-4.45 79.45-3.3 81.15-2.16 81.15-0.13L81.15-0.13Q81.15 3.96 73.96 3.96L73.96 3.96Q67 3.96 67 0.06L67 0.06Q67-2.58 70.54-3.67L70.54-3.67Q68.42-4.48 68.42-5.67L68.42-5.67Q68.42-6.93 70.54-7.93L70.54-7.93Q68-9.41 68-12.15L68-12.15Q68-14.41 69.67-16 71.35-17.6 74.02-17.6L74.02-17.6Q76.51-17.6 78.05-16.15ZM74.02-15.31L74.02-15.31Q72.51-15.31 71.54-14.24L71.54-14.24Q70.74-13.31 70.74-12.12L70.74-12.12Q70.74-10.83 71.64-9.99L71.64-9.99Q72.61-9.15 74.02-9.15L74.02-9.15Q77.25-9.15 77.25-12.15L77.25-12.15Q77.25-15.31 74.02-15.31ZM73.19-2.93L73.19-2.93Q69.77-2.26 69.77-0.45L69.77-0.45Q69.77 1.64 73.77 1.64L73.77 1.64Q78.38 1.64 78.38-0.32L78.38-0.32Q78.38-1.51 76.22-2.3 74.06-3.09 73.19-2.93ZM90.88-17.6L90.88-17.6Q94-17.6 95.91-15.36 97.81-13.12 97.81-8.7L97.81-8.7Q97.81 0.1 90.75 0.1 83.69 0.1 83.69-8.73L83.69-8.73Q83.69-17.6 90.88-17.6ZM90.72-14.95L90.72-14.95Q86.69-14.95 86.69-8.25L86.69-8.25Q86.69-2.55 90.75-2.55L90.75-2.55Q94.78-2.55 94.78-8.67L94.78-8.67Q94.78-14.95 90.72-14.95Z" transform="translate(-1.3200000524520874, 27.709999084472656)"></path></g> <!----> <!----> <!----> <!----> <!----> <!----> <!----></g></g> <g data-gra="path-slogan" fill-rule="" class="tp-slogan iconsvg-slogansvg" fill="#000000" transform="translate(5,37.670000076293945)"><rect x="0" height="1" y="2.8600003719329834" width="17.55499839782715"></rect> <rect height="1" y="2.8600003719329834" width="17.55499839782715" x="68.93499946594238"></rect> <g transform="translate(20.55499839782715,0)"><g transform="scale(1)"><path d="M2.57-3.23L1.55-2.29L1.55 0L0.67 0L0.67-6.43L1.55-6.43L1.55-3.30L4.68-6.43L5.91-6.43L3.20-3.83L5.98 0L4.82 0L2.57-3.23ZM11.74-3.20L11.74-3.20Q11.60-5.73 9.49-5.87L9.49-5.87Q7.35-5.77 7.24-3.20L7.24-3.20Q7.35-0.70 9.49-0.60L9.49-0.60Q11.60-0.74 11.74-3.20ZM12.62-3.20L12.62-3.20Q12.41 0 9.49 0.11L9.49 0.11Q6.54 0 6.33-3.20L6.33-3.20Q6.50-6.54 9.49-6.61L9.49-6.61Q12.41-6.50 12.62-3.20ZM17.89 0L17.26-1.86L14.66-1.86L13.99 0L13.11 0L15.54-6.43L16.52-6.43L18.84 0L17.89 0ZM15.96-5.48L14.94-2.64L16.95-2.64L16.00-5.48L15.96-5.48ZM19.62-6.43L20.50-6.43L20.50-0.77L23.77-0.77L23.77 0L19.62 0L19.62-6.43ZM28.86 0L28.23-1.86L25.63-1.86L24.96 0L24.08 0L26.51-6.43L27.49-6.43L29.81 0L28.86 0ZM26.93-5.48L25.91-2.64L27.91-2.64L26.96-5.48L26.93-5.48ZM37.90-2.71L35.93-2.71L35.93-3.45L38.74-3.45L38.74 0L38.18 0L37.97-0.81Q37.23 0.07 35.86 0.11L35.86 0.11Q34.56 0.11 33.86-0.56L33.86-0.56Q32.80-1.55 32.84-3.27L32.84-3.27Q33.08-6.47 35.89-6.61L35.89-6.61Q38.29-6.47 38.64-4.50L38.64-4.50L37.79-4.50Q37.44-5.84 35.86-5.87L35.86-5.87Q33.86-5.73 33.75-3.23L33.75-3.23Q33.75-0.56 35.89-0.56L35.89-0.56Q36.67-0.56 37.23-0.98L37.23-0.98Q37.93-1.55 37.90-2.71L37.90-2.71ZM45.18-3.20L45.18-3.20Q45.04-5.73 42.93-5.87L42.93-5.87Q40.78-5.77 40.68-3.20L40.68-3.20Q40.78-0.70 42.93-0.60L42.93-0.60Q45.04-0.74 45.18-3.20ZM46.05-3.20L46.05-3.20Q45.84 0 42.93 0.11L42.93 0.11Q39.97 0 39.76-3.20L39.76-3.20Q39.94-6.54 42.93-6.61L42.93-6.61Q45.84-6.50 46.05-3.20Z" transform="translate(-0.66796875, 6.609375)"></path></g></g></g></g></g>
</svg>